<?xml version="1.0" encoding="UTF-8"?>
<!DOCTYPE svg  PUBLIC '-//W3C//DTD SVG 1.1//EN'  'http://www.w3.org/Graphics/SVG/1.1/DTD/svg11.dtd'>
<svg clip-rule="evenodd" fill="currentColor" fill-rule="evenodd" stroke-linejoin="round" stroke-miterlimit="2" version="1.1" viewBox="0 0 200 200" xml:space="preserve" xmlns="http://www.w3.org/2000/svg">
    <g transform="matrix(1.3636 0 0 1.6667 -45.454 50)">
        <path d="m180 26.958c0-3.613-1.754-7.079-4.878-9.634-3.123-2.555-7.358-3.991-11.775-3.991h-113.36c-4.416 0-8.652 1.436-11.775 3.991s-4.878 6.021-4.878 9.634v6.084c0 3.613 1.755 7.079 4.878 9.634s7.359 3.991 11.775 3.991h113.36c4.417 0 8.652-1.436 11.775-3.991 3.124-2.555 4.878-6.021 4.878-9.634v-6.084z"/>
    </g>
    <g transform="matrix(1.3636 0 0 1.6667 -45.454 122.22)">
        <path d="m180 26.958c0-3.613-1.754-7.079-4.878-9.634-3.123-2.555-7.358-3.991-11.775-3.991h-113.36c-4.416 0-8.652 1.436-11.775 3.991s-4.878 6.021-4.878 9.634v6.084c0 3.613 1.755 7.079 4.878 9.634s7.359 3.991 11.775 3.991h113.36c4.417 0 8.652-1.436 11.775-3.991 3.124-2.555 4.878-6.021 4.878-9.634v-6.084z"/>
    </g>
    <g transform="matrix(1.3636 0 0 1.6667 -45.454 -22.222)">
        <path d="m180 26.958c0-3.613-1.754-7.079-4.878-9.634-3.123-2.555-7.358-3.991-11.775-3.991h-113.36c-4.416 0-8.652 1.436-11.775 3.991s-4.878 6.021-4.878 9.634v6.084c0 3.613 1.755 7.079 4.878 9.634s7.359 3.991 11.775 3.991h113.36c4.417 0 8.652-1.436 11.775-3.991 3.124-2.555 4.878-6.021 4.878-9.634v-6.084z"/>
    </g>
</svg>
